<svg xmlns:mydata="http://www.w3.org/2000/svg" mydata:contrastcolor="ffffff" mydata:template="Default" mydata:presentation="2.5" mydata:layouttype="undefined" mydata:specialfontid="undefined" mydata:id1="240" mydata:id2="630" mydata:companyname="market price" mydata:companytagline="" version="1.1" xmlns="http://www.w3.org/2000/svg" xmlns:xlink="http://www.w3.org/1999/xlink" viewBox="0 0 550 470"><g fill="#ffffff" fill-rule="none" stroke="none" stroke-width="1" stroke-linecap="butt" stroke-linejoin="miter" stroke-miterlimit="10" stroke-dasharray="" stroke-dashoffset="0" font-family="none" font-weight="none" font-size="none" text-anchor="none" style="mix-blend-mode: normal"><g data-paper-data="{&quot;isGlobalGroup&quot;:true,&quot;bounds&quot;:{&quot;x&quot;:65,&quot;y&quot;:127.34981549815501,&quot;width&quot;:420,&quot;height&quot;:215.30036900368998}}"><g data-paper-data="{&quot;isPrimaryText&quot;:true}" fill-rule="nonzero"><path d="M87.2786,315.07638l-22.2786,-14.40037v41.97417h10.0738v-23.44096l12.07565,7.87823l12.4631,-7.9428v23.50554h10.0738v-41.97417z" data-paper-data="{&quot;glyphName&quot;:&quot;M&quot;,&quot;glyphIndex&quot;:0,&quot;firstGlyphOfWord&quot;:true,&quot;word&quot;:1}"></path><path d="M145.78413,342.65018h11.62362l-22.5369,-41.97417v0v0v0v0l-22.60148,41.97417h11.62362l3.03506,-5.87638h15.82103zM130.99631,328.89557l3.87454,-7.36162l3.80996,7.36162z" data-paper-data="{&quot;glyphName&quot;:&quot;A&quot;,&quot;glyphIndex&quot;:1,&quot;word&quot;:1}"></path><path d="M168.19188,328.37897l-9.04059,14.27122h11.30074l8.78229,-13.36716c1.74354,0 3.29336,0 4.7786,0v13.36716h10.0738v-41.97417h-10.0738v0c-1.22694,0 -4.06827,0 -10.0738,0c-10.3321,0 -14.91697,7.9428 -14.91697,14.40037c0,4.71402 2.51845,10.97786 9.16974,13.30258zM184.01292,320.24244h-9.94465c-1.35609,0 -2.45387,-0.19373 -3.29336,-0.58118c-0.64576,-0.2583 -1.09779,-0.58118 -1.48524,-1.09779c-0.90406,-1.09779 -1.22694,-2.58303 -1.22694,-3.48708c0,-1.03321 0.32288,-2.51845 1.35609,-3.68081c0.96863,-1.09779 2.45387,-1.67897 4.5203,-1.67897h10.0738z" data-paper-data="{&quot;glyphName&quot;:&quot;Я&quot;,&quot;glyphIndex&quot;:2,&quot;word&quot;:1}"></path><path d="M227.34317,342.65018h14.27122l-21.82657,-22.7952l19.24354,-19.17897h-14.27122l-16.72509,16.72509v-16.72509h-10.0738v41.97417h10.0738v-10.97786l4.58487,-4.64945z" data-paper-data="{&quot;glyphName&quot;:&quot;K&quot;,&quot;glyphIndex&quot;:3,&quot;word&quot;:1}"></path><path d="M254.27122,326.18339h16.33764v-9.04059h-16.33764v-7.4262h19.24354v-9.04059h-29.31734v41.97417h29.31734v-9.04059h-19.24354z" data-paper-data="{&quot;glyphName&quot;:&quot;E&quot;,&quot;glyphIndex&quot;:4,&quot;word&quot;:1}"></path><path d="M307.869,310.74982v-10.0738h-31.90037v10.0738h10.91328v31.90037h10.0738v-31.90037z" data-paper-data="{&quot;glyphName&quot;:&quot;T&quot;,&quot;glyphIndex&quot;:5,&quot;lastGlyphOfWord&quot;:true,&quot;word&quot;:1}"></path><path d="M348.09963,300.67601c-6.00554,0 -8.78229,0 -10.0738,0v0h-10.0738v0v0v28.60701v0v13.36716h10.0738v-13.36716c2.84133,0 6.19926,0 9.94465,0c11.10701,0 15.1107,-8.33026 15.1107,-14.27122c0,-6.45756 -4.64945,-14.33579 -14.98155,-14.33579zM352.81365,318.56347c-0.45203,0.45203 -0.90406,0.77491 -1.48524,1.09779c-0.90406,0.38745 -2.00185,0.58118 -3.35793,0.58118h-9.94465v-10.52583h10.0738c2.06642,0 3.55166,0.51661 4.58487,1.67897c0.96863,1.09779 1.35609,2.58303 1.35609,3.61624c0,0.96863 -0.32288,2.45387 -1.22694,3.55166z" data-paper-data="{&quot;glyphName&quot;:&quot;P&quot;,&quot;glyphIndex&quot;:6,&quot;firstGlyphOfWord&quot;:true,&quot;word&quot;:2}"></path><path d="M375.15683,328.37897l-9.04059,14.27122h11.30074l8.78229,-13.36716c1.74354,0 3.29336,0 4.7786,0v13.36716h10.0738v-41.97417h-10.0738v0c-1.22694,0 -4.06827,0 -10.0738,0c-10.3321,0 -14.91697,7.9428 -14.91697,14.40037c0,4.71402 2.51845,10.97786 9.16974,13.30258zM390.97786,320.24244h-9.94465c-1.35609,0 -2.45387,-0.19373 -3.29336,-0.58118c-0.64576,-0.2583 -1.09779,-0.58118 -1.48524,-1.09779c-0.90406,-1.09779 -1.22694,-2.58303 -1.22694,-3.48708c0,-1.03321 0.32288,-2.51845 1.35609,-3.68081c0.96863,-1.09779 2.45387,-1.67897 4.5203,-1.67897h10.0738z" data-paper-data="{&quot;glyphName&quot;:&quot;Я&quot;,&quot;glyphIndex&quot;:7,&quot;word&quot;:2}"></path><path d="M403.95756,300.67601v41.97417h10.0738v-41.97417z" data-paper-data="{&quot;glyphName&quot;:&quot;I&quot;,&quot;glyphIndex&quot;:8,&quot;word&quot;:2}"></path><path d="M446.06089,330.89742c-2.131,1.61439 -4.7786,2.51845 -7.55535,2.51845c-3.35793,0 -6.45756,-1.29151 -8.84686,-3.68081c-2.3893,-2.3893 -3.68081,-5.48893 -3.68081,-8.84686c0,-3.35793 1.29151,-6.52214 3.68081,-8.91144c2.3893,-2.3893 5.48893,-3.68081 8.84686,-3.68081c2.77675,0 5.42435,0.90406 7.55535,2.51845l6.45756,-6.39299c-3.80996,-3.22878 -8.65314,-5.16605 -14.01292,-5.16605c-11.88192,0 -21.56827,9.68635 -21.56827,21.63284c0,11.88192 9.68635,21.56827 21.56827,21.56827c5.35978,0 10.20295,-1.93727 14.01292,-5.10148z" data-paper-data="{&quot;glyphName&quot;:&quot;C&quot;,&quot;glyphIndex&quot;:9,&quot;word&quot;:2}"></path><path d="M465.75646,326.18339h16.33764v-9.04059h-16.33764v-7.4262h19.24354v-9.04059h-29.31734v41.97417h29.31734v-9.04059h-19.24354z" data-paper-data="{&quot;glyphName&quot;:&quot;E&quot;,&quot;glyphIndex&quot;:10,&quot;lastGlyphOfWord&quot;:true,&quot;word&quot;:2}"></path></g><g data-paper-data="{&quot;isIcon&quot;:&quot;true&quot;,&quot;iconType&quot;:&quot;icon&quot;,&quot;rawIconId&quot;:&quot;721733&quot;,&quot;selectedEffects&quot;:{&quot;container&quot;:&quot;&quot;,&quot;transformation&quot;:&quot;&quot;,&quot;pattern&quot;:&quot;&quot;},&quot;isDetailed&quot;:false,&quot;fillRule&quot;:&quot;evenodd&quot;,&quot;bounds&quot;:{&quot;x&quot;:203.08856088560887,&quot;y&quot;:127.34981549815501,&quot;width&quot;:143.8228782287823,&quot;height&quot;:143.82387823488864},&quot;iconStyle&quot;:&quot;standalone&quot;,&quot;suitableAsStandaloneIcon&quot;:true}" fill-rule="evenodd"><g data-paper-data="{&quot;isPathIcon&quot;:true}"><path d="M203.08856,199.26125l71.91144,71.91244l71.91144,-71.91244l-71.91144,-71.91144zM275,264.81865l-65.5564,-65.5574l63.30939,-63.30939v66.68041h4.49403v-66.68041l63.30939,63.30939z"></path></g></g></g></g></svg>